<?xml version="1.0" encoding="UTF-8" standalone="no"?>
<!-- Created with Inkscape (http://www.inkscape.org/) -->

<svg
   width="262.03583mm"
   height="106.54456mm"
   viewBox="0 0 262.03583 106.54456"
   version="1.1"
   id="svg10063"
   xmlns="http://www.w3.org/2000/svg"
   xmlns:svg="http://www.w3.org/2000/svg">
  <defs
     id="defs10060">
    <rect
       x="375.02899"
       y="746.39917"
       width="1033.6165"
       height="358.5643"
       id="rect18680" />
    <rect
       x="375.02899"
       y="746.39917"
       width="1033.6165"
       height="358.5643"
       id="rect18680-6" />
  </defs>
  <g
     id="layer1"
     transform="translate(-30.907585,-170.48273)">
    <g
       id="g28753"
       transform="translate(22.631767,-3.3499963)">
      <circle
         style="fill:#000000;stroke-width:1.15879;stroke-opacity:0.933333"
         id="path10586-4-7"
         cx="17.625381"
         cy="241.83981"
         r="5.2912312" />
      <circle
         style="fill:#000000;stroke-width:1.15879;stroke-opacity:0.933333"
         id="path10586-4-3-3"
         cx="89.917442"
         cy="241.83981"
         r="5.2912312" />
      <circle
         style="fill:#ff2a2a;stroke-width:1.15879;stroke-opacity:0.933333"
         id="path10586-6-7-5-1"
         cx="54.829578"
         cy="241.83981"
         r="5.2912312" />
      <path
         style="fill:none;stroke:#000000;stroke-width:2.79993px;stroke-linecap:butt;stroke-linejoin:miter;stroke-opacity:1"
         d="m 48.392313,176.97437 c 0.201816,1.98451 0.212481,3.98842 0.0318,5.97497 -0.174418,1.91769 -0.526038,3.81417 -0.864579,5.70978 -0.833503,4.66707 -1.590319,9.34756 -2.422335,14.01489 -0.189758,1.06448 -0.388527,2.14411 -0.865638,3.11441 -0.606622,1.23369 -1.624484,2.21241 -2.673446,3.10103 -1.048962,0.88862 -2.158654,1.7237 -3.036423,2.78176 -1.00434,1.21063 -1.667256,2.67082 -2.156356,4.16584 -0.489099,1.49503 -0.814747,3.03767 -1.218397,4.55799 -0.882605,3.32428 -2.140165,6.54494 -3.678673,9.62111 -1.050878,2.10117 -2.243846,4.16441 -2.818214,6.44243 -0.592937,2.35167 -0.496721,4.81703 -0.334108,7.23683 0.162612,2.41981 0.387091,4.86055 0.03992,7.26084 -0.22547,1.55885 -0.68908,3.07493 -0.932992,4.63101 -0.243911,1.55607 -0.254106,3.20585 0.393283,4.64173 0.477876,1.05991 1.302885,1.95369 2.302082,2.54814 0.999197,0.59445 2.166709,0.89212 3.329356,0.8876 1.162647,-0.005 2.318411,-0.30717 3.352626,-0.83837 1.034214,-0.53119 1.94747,-1.28783 2.692623,-2.18031 1.192207,-1.42792 1.946462,-3.18748 2.348725,-5.00365 0.402264,-1.81618 0.464872,-3.69296 0.38097,-5.55125 -0.167803,-3.7166 -0.91421,-7.41976 -0.644519,-11.13035 0.405536,-5.57965 3.059799,-10.71007 5.594949,-15.69705 0.803996,-1.58157 1.620337,-3.19369 2.859566,-4.46336 0.619615,-0.63484 1.342936,-1.17684 2.155644,-1.53244 0.812708,-0.35559 1.717589,-0.51962 2.597385,-0.40604 0.766237,0.0989 1.498603,0.4057 2.137085,0.84072 0.638482,0.43503 1.185538,0.99584 1.647709,1.61495 0.924343,1.23823 1.506014,2.69191 2.097994,4.11921 2.124192,5.12154 4.519236,10.16213 5.931048,15.52395 1.924565,7.30918 1.95888,14.9621 2.085066,22.51936 0.08822,5.28348 0.227207,10.56611 0.416936,15.84692"
         id="path14358-7" />
      <path
         style="fill:none;stroke:#000000;stroke-width:2.79993px;stroke-linecap:butt;stroke-linejoin:miter;stroke-opacity:1"
         d="m 28.461192,236.49175 13.390204,1.28752"
         id="path15176-6" />
      <path
         style="fill:none;stroke:#000000;stroke-width:2.79993px;stroke-linecap:butt;stroke-linejoin:miter;stroke-opacity:1"
         d="m 41.851396,208.68115 9.012762,9.5277"
         id="path15180-9" />
      <path
         style="fill:none;stroke:#000000;stroke-width:2.79993px;stroke-linecap:butt;stroke-linejoin:miter;stroke-opacity:1"
         d="m 59.104301,220.26891 11.072744,-7.72519"
         id="path15184-7" />
      <path
         style="fill:none;stroke:#000000;stroke-width:2.96807px;stroke-linecap:butt;stroke-linejoin:miter;stroke-opacity:1"
         d="m 67.327935,242.92315 12.058492,-0.76003"
         id="path15188-4" />
      <path
         style="fill:none;stroke:#000000;stroke-width:2.79993px;stroke-linecap:butt;stroke-linejoin:miter;stroke-opacity:1"
         d="M 69.661996,268.1649 H 80.734745"
         id="path15192-9" />
      <path
         style="fill:none;stroke:#000000;stroke-width:2.79993px;stroke-linecap:butt;stroke-linejoin:miter;stroke-opacity:1"
         d="m 47.774074,187.56571 15.707769,0.25757"
         id="path15196-0" />
      <path
         style="fill:none;stroke:#000000;stroke-width:2.79993px;stroke-linecap:butt;stroke-linejoin:miter;stroke-opacity:1"
         d="m 63.480893,177.75865 c -0.391577,3.33964 -0.391258,6.72506 9.5e-4,10.06462 0.469781,4.00008 1.496376,7.91425 2.095226,11.89705 0.200697,1.33479 0.353823,2.67978 0.670928,3.99179 0.759133,3.14089 2.423826,5.97217 3.928838,8.83161 1.886939,3.58509 3.552694,7.29023 4.895871,11.11244 1.371447,3.90265 2.403671,7.91834 3.245753,11.96834 0.72802,3.50141 1.315363,7.03442 1.668747,10.59322 0.38661,3.8934 0.492506,7.80875 0.576739,11.72039 0.0734,3.40863 0.130546,6.81761 0.17143,10.22679 l 0.299489,9.07863"
         id="path17342-3" />
    </g>
    <g
       id="g28739"
       transform="translate(6.9225137,-4.5892102)">
      <path
         id="text18678"
         style="font-size:96px;line-height:1.25;font-family:sans-serif;letter-spacing:-8.18452px;white-space:pre;shape-inside:url(#rect18680);stroke-width:1.22789"
         d="M 745.11719 105.42188 C 721.54171 105.53975 701.97335 124.51965 701.85547 147.85938 C 701.97335 171.31698 721.54171 190.29492 745.11719 190.29492 C 755.4904 190.29492 764.92138 186.8756 772.34766 181.09961 C 775.17671 178.85994 775.64718 174.61686 773.52539 171.66992 C 771.16784 168.84086 766.80688 168.36913 764.0957 170.37305 C 758.79122 174.61663 752.42559 176.85547 745.11719 176.85547 C 736.98365 176.85547 729.43868 173.55575 723.89844 168.36914 C 718.59395 163.18254 715.29492 155.87504 715.29492 147.85938 C 715.29492 139.84371 718.59395 132.77002 723.89844 127.34766 C 729.43868 122.16105 736.98365 118.86133 745.11719 118.86133 C 752.42559 118.86133 758.9091 121.10016 764.0957 125.34375 C 766.80688 127.46554 771.16784 126.99381 773.52539 124.04688 C 775.64718 121.09994 775.17671 116.97474 772.34766 114.61719 C 764.92138 108.8412 755.4904 105.42188 745.11719 105.42188 z M 445.29688 107.7793 C 441.76055 107.7793 438.81445 110.72735 438.81445 114.26367 L 438.81445 183.81055 C 438.81445 187.34687 441.76055 190.29492 445.29688 190.29492 C 448.95107 190.29492 451.89844 187.34687 451.89844 183.81055 L 451.89844 134.18555 L 468.75391 157.75977 C 470.05056 159.52793 472.05594 160.4707 474.17773 160.4707 L 474.29492 160.4707 L 474.41211 160.4707 C 476.5339 160.4707 478.42015 159.52793 479.7168 157.75977 L 496.69141 134.18555 L 496.69141 183.81055 C 496.69141 187.34687 499.51963 190.29492 503.17383 190.29492 C 506.71015 190.29492 509.77539 187.34687 509.77539 183.81055 L 509.77539 114.26367 C 509.77539 110.72735 506.71015 107.89717 503.17383 107.7793 L 503.05664 107.7793 C 500.93485 107.7793 499.0486 108.72403 497.75195 110.49219 L 474.29492 143.02539 L 450.83789 110.49219 C 449.65912 108.72403 447.53643 107.7793 445.65039 107.7793 L 445.29688 107.7793 z M 593.26562 107.7793 C 589.7293 107.7793 586.78125 110.60947 586.78125 114.26367 L 586.78125 183.81055 C 586.78125 187.34687 589.7293 190.29492 593.26562 190.29492 C 596.91982 190.29492 599.86523 187.34687 599.86523 183.81055 L 599.86523 158.23242 L 614.36523 158.23242 C 628.39264 158.23242 639.70898 146.9147 639.70898 133.12305 C 639.70898 119.09564 628.39264 107.7793 614.36523 107.7793 L 593.38281 107.7793 L 593.26562 107.7793 z M 652.05273 107.7793 C 648.39854 107.7793 645.57031 110.60947 645.57031 114.26367 L 645.57031 183.81055 C 645.57031 187.34687 648.39854 190.29492 652.05273 190.29492 L 652.17188 190.17578 C 652.17188 190.17578 652.17245 190.29492 652.4082 190.29492 L 690.59961 190.29492 C 694.01805 190.29492 697.08203 187.34687 697.08203 183.81055 C 697.08203 180.15635 694.01805 177.21094 690.59961 177.21094 L 658.6543 177.21094 L 658.6543 155.52148 L 686.12109 155.52148 C 689.65742 155.52148 692.60352 152.57412 692.60352 148.91992 C 692.60352 145.50148 689.65742 142.43555 686.12109 142.43555 L 658.6543 142.43555 L 658.6543 120.86523 L 690.59961 120.86523 C 694.01805 120.86523 697.08203 117.91787 697.08203 114.26367 C 697.08203 110.60947 694.01805 107.7793 690.59961 107.7793 L 652.4082 107.7793 L 652.17188 107.7793 L 652.05273 107.7793 z M 883.33203 107.7793 C 883.09628 107.7793 882.74357 107.78056 882.50781 107.89844 C 882.38994 107.89844 882.15303 107.89775 882.03516 108.01562 C 881.7994 108.01562 881.56388 108.13477 881.32812 108.13477 C 881.09237 108.25264 880.97404 108.48828 880.73828 108.48828 C 880.6204 108.60616 880.38546 108.60478 880.26758 108.72266 L 865.76758 117.32812 C 862.70277 119.09629 861.64257 123.22299 863.64648 126.16992 C 864.82526 128.29172 866.94783 129.46875 869.1875 129.46875 C 870.2484 129.46875 871.42738 129.23461 872.48828 128.52734 L 877.20312 125.81641 L 877.20312 183.81055 C 877.20312 187.46475 880.03135 190.29492 883.68555 190.29492 C 887.22187 190.29492 890.28711 187.46475 890.28711 183.81055 L 890.28711 114.26367 L 890.28711 113.91016 C 890.05135 113.6744 890.05078 113.43762 890.05078 113.08398 C 890.05078 112.96611 889.93359 112.73185 889.93359 112.49609 C 889.81572 112.37822 889.81514 112.142 889.69727 111.90625 C 889.69727 111.6705 889.57881 111.55216 889.46094 111.31641 C 889.46094 111.19853 889.34375 111.08077 889.34375 110.96289 L 889.22656 110.72656 L 888.75391 110.25586 C 888.63603 110.0201 888.51827 109.90108 888.40039 109.7832 C 888.28251 109.66533 888.16544 109.43038 887.92969 109.3125 C 887.81181 109.19462 887.57491 109.07686 887.45703 108.95898 C 887.22128 108.84111 887.10421 108.72335 886.98633 108.60547 C 886.75057 108.60547 886.63293 108.48771 886.2793 108.25195 C 886.16142 108.13408 885.92452 108.13477 885.80664 108.13477 C 885.57089 108.01689 885.45324 107.89844 885.09961 107.89844 C 884.98173 107.89844 884.74678 107.89717 884.62891 107.7793 L 883.80273 107.7793 L 883.68555 107.7793 L 883.33203 107.7793 z M 940.07422 107.7793 C 930.7619 107.7793 923.09929 113.32108 918.14844 120.86523 C 912.96183 128.40939 910.25069 138.19239 910.13281 149.03711 C 910.25069 159.76395 912.96183 169.66678 918.14844 177.21094 C 923.09929 184.63721 930.7619 190.29492 940.07422 190.29492 C 949.15078 190.29492 956.93001 184.63721 961.88086 177.21094 C 966.94959 169.66678 969.7793 159.76395 969.7793 149.03711 C 969.7793 138.19239 966.94959 128.40939 961.88086 120.86523 C 956.93001 113.32108 949.15078 107.7793 940.07422 107.7793 z M 400.35938 107.89844 C 397.76607 107.78056 395.17222 109.43013 394.11133 112.02344 L 368.06055 181.45312 C 366.88177 184.87157 368.53077 188.64475 371.94922 189.94141 C 372.65648 190.17716 373.36431 190.29492 374.18945 190.29492 C 376.78276 190.29492 379.25942 188.76127 380.32031 186.16797 L 386.0957 170.84375 L 414.74023 170.84375 L 420.51562 186.16797 C 421.45864 188.76127 423.93404 190.29492 426.52734 190.29492 C 427.35249 190.29492 428.17819 190.17716 428.76758 189.94141 C 432.18602 188.64475 433.83502 184.87157 432.65625 181.45312 L 406.60547 112.02344 C 405.54457 109.43013 403.07056 107.78056 400.35938 107.89844 z M 548.32617 107.89844 C 545.73287 107.78056 543.13902 109.43013 542.07812 112.02344 L 516.02734 181.45312 C 514.84857 184.87157 516.49952 188.64475 519.91797 189.94141 C 520.62523 190.17716 521.33306 190.29492 522.1582 190.29492 C 524.75151 190.29492 527.22621 188.76127 528.28711 186.16797 L 534.0625 170.84375 L 562.70703 170.84375 L 568.48438 186.16797 C 569.42739 188.76127 571.90279 190.29492 574.49609 190.29492 C 575.32124 190.29492 576.14499 190.17716 576.73438 189.94141 C 580.15282 188.64475 581.80377 184.87157 580.625 181.45312 L 554.57422 112.02344 C 553.51332 109.43013 551.03735 107.78056 548.32617 107.89844 z M 599.86523 120.86523 L 614.36523 120.86523 C 621.20212 120.86523 626.50712 126.28616 626.625 133.12305 C 626.50712 139.72418 621.20212 145.14648 614.36523 145.14648 L 599.86523 145.14648 L 599.86523 120.86523 z M 940.07422 120.86523 C 943.72842 120.74736 947.61866 123.10384 951.03711 128.05469 C 954.33768 133.12342 956.69531 140.54994 956.69531 149.03711 C 956.69531 157.4064 954.33768 164.95149 951.03711 169.90234 C 947.61866 174.97107 943.72842 177.21094 940.07422 177.21094 C 936.42002 177.21094 932.41132 174.97107 928.875 169.90234 C 925.57443 164.95149 923.2168 157.4064 923.2168 149.03711 C 923.2168 140.54994 925.57443 133.12342 928.875 128.05469 C 932.41132 123.10384 936.42002 120.74736 940.07422 120.86523 z M 812.85742 132.25977 C 812.0949 132.25424 811.33617 132.4159 810.62891 132.76953 C 807.32834 134.18406 805.79446 137.60247 807.20898 140.78516 L 826.30664 186.52148 C 826.42452 186.87512 826.54159 187.22978 826.77734 187.34766 C 826.77734 187.46553 826.77665 187.46484 826.89453 187.46484 C 827.13029 187.7006 827.3665 188.05526 827.48438 188.29102 C 827.60225 188.40889 827.60283 188.4082 827.7207 188.4082 C 827.95646 188.76184 828.19198 188.87948 828.42773 189.11523 C 828.42773 189.11523 828.54492 189.1165 828.54492 189.23438 C 829.01643 189.47013 829.25379 189.70439 829.60742 189.82227 L 829.8418 189.82227 L 829.8418 189.94141 C 830.19543 189.94141 830.43152 190.0579 830.78516 190.17578 L 831.02148 190.17578 C 831.49299 190.29366 831.84628 190.29492 832.08203 190.29492 C 832.43566 190.29492 832.78826 190.29366 833.25977 190.17578 L 833.49609 190.17578 C 833.73185 190.0579 834.08582 189.94141 834.43945 189.94141 L 834.43945 189.82227 L 834.67578 189.82227 C 835.02941 189.70439 835.26425 189.47013 835.5 189.23438 C 835.5 189.1165 835.61914 189.11523 835.61914 189.11523 C 835.8549 188.87948 836.09042 188.76184 836.32617 188.4082 C 836.32617 188.4082 836.44336 188.40889 836.44336 188.29102 C 836.67911 188.05526 836.91464 187.7006 837.15039 187.46484 C 837.15039 187.46484 837.26758 187.46553 837.26758 187.34766 C 837.38546 187.22978 837.62236 186.87512 837.74023 186.52148 L 857.07227 140.78516 C 858.48679 137.60247 856.95486 134.18406 853.6543 132.76953 C 850.58948 131.355 847.05251 133.00676 845.75586 136.18945 L 832.08203 168.25195 L 818.52539 136.18945 C 817.46449 133.80244 815.14498 132.27634 812.85742 132.25977 z M 400.35938 132.53516 L 409.90625 157.87891 L 390.81055 157.87891 L 400.35938 132.53516 z M 548.32617 132.53516 L 557.875 157.87891 L 538.7793 157.87891 L 548.32617 132.53516 z M 906.04492 173.55664 C 901.21195 173.55664 897.32227 177.56351 897.32227 182.39648 C 897.32227 187.22946 901.21195 191.11914 906.04492 191.11914 C 910.8779 191.11914 914.88672 187.22946 914.88672 182.39648 C 914.88672 177.56351 910.8779 173.55664 906.04492 173.55664 z "
         transform="matrix(0.26458333,0,0,0.26458333,23.985071,175.07194)" />
      <path
         id="text18678-7"
         style="font-size:42.6667px;line-height:0.95;font-family:sans-serif;letter-spacing:-2.8199px;white-space:pre;shape-inside:url(#rect18680-6);stroke-width:1.05466"
         d="M 423.83203 218.62109 C 422.43706 218.62109 421.31055 219.70073 421.31055 221.0957 L 421.31055 227.62109 L 420.00586 227.62109 C 418.61089 227.62109 417.53125 228.70073 417.53125 230.0957 C 417.53125 231.44568 418.61089 232.57031 420.00586 232.57031 L 421.31055 232.57031 L 421.31055 245.125 C 421.31055 247.86994 423.5617 250.12109 426.30664 250.12109 C 427.70161 250.12109 428.78125 249.04146 428.78125 247.64648 C 428.78125 246.25151 427.70161 245.125 426.30664 245.125 L 426.30664 232.57031 L 427.43164 232.57031 C 428.78161 232.57031 429.95117 231.44568 429.95117 230.0957 C 429.95117 228.70073 428.78161 227.62109 427.43164 227.62109 L 426.30664 227.62109 L 426.30664 221.0957 C 426.30664 219.70073 425.227 218.62109 423.83203 218.62109 z M 437.34375 218.62109 C 435.99378 218.62109 434.91406 219.70081 434.91406 221.05078 L 434.91406 221.99609 C 434.91406 223.34607 435.99378 224.4707 437.34375 224.4707 C 438.73872 224.4707 439.77344 223.34607 439.77344 221.99609 L 439.77344 221.05078 C 439.77344 219.70081 438.73872 218.62109 437.34375 218.62109 z M 486.85352 218.62109 C 485.50354 218.62109 484.42383 219.70081 484.42383 221.05078 L 484.42383 221.99609 C 484.42383 223.34607 485.50354 224.4707 486.85352 224.4707 C 488.24849 224.4707 489.2832 223.34607 489.2832 221.99609 L 489.2832 221.05078 C 489.2832 219.70081 488.24849 218.62109 486.85352 218.62109 z M 559.99023 218.62109 C 558.64026 218.62109 557.55859 219.74581 557.55859 221.05078 L 557.55859 238.87109 L 557.55859 238.91602 L 557.55859 247.69141 C 557.55859 248.99638 558.64026 250.12109 559.99023 250.12109 C 561.20521 250.12109 562.15 249.26552 562.375 248.18555 C 564.08496 249.35552 566.24419 250.12109 568.49414 250.12109 C 574.56902 250.12109 579.42969 244.99089 579.42969 238.91602 C 579.42969 232.75114 574.56902 227.62109 568.49414 227.62109 C 566.28919 227.62109 564.12981 228.34174 562.46484 229.51172 L 562.46484 221.05078 C 562.46484 219.74581 561.38521 218.62109 559.99023 218.62109 z M 586.76758 218.62109 C 585.41761 218.62109 584.33594 219.70081 584.33594 221.05078 L 584.33594 221.99609 C 584.33594 223.34607 585.41761 224.4707 586.76758 224.4707 C 588.16255 224.4707 589.19727 223.34607 589.19727 221.99609 L 589.19727 221.05078 C 589.19727 219.70081 588.16255 218.62109 586.76758 218.62109 z M 622.26562 218.62109 C 620.91565 218.62109 619.79102 219.74573 619.79102 221.0957 L 619.79102 247.64648 C 619.79102 248.99646 620.91565 250.12109 622.26562 250.12109 C 623.6606 250.12109 624.78516 248.99646 624.78516 247.64648 L 624.78516 221.0957 C 624.78516 219.74573 623.6606 218.62109 622.26562 218.62109 z M 689.80469 218.62109 C 688.40972 218.62109 687.28516 219.70073 687.28516 221.0957 L 687.28516 227.62109 L 685.98047 227.62109 C 684.5855 227.62109 683.50586 228.70073 683.50586 230.0957 C 683.50586 231.44568 684.5855 232.57031 685.98047 232.57031 L 687.28516 232.57031 L 687.28516 245.125 C 687.28516 247.86994 689.53435 250.12109 692.2793 250.12109 C 693.67427 250.12109 694.75586 249.04146 694.75586 247.64648 C 694.75586 246.25151 693.67427 245.125 692.2793 245.125 L 692.2793 232.57031 L 693.4043 232.57031 C 694.75427 232.57031 695.92578 231.44568 695.92578 230.0957 C 695.92578 228.70073 694.75427 227.62109 693.4043 227.62109 L 692.2793 227.62109 L 692.2793 221.0957 C 692.2793 219.70073 691.19966 218.62109 689.80469 218.62109 z M 703.31836 218.62109 C 701.96839 218.62109 700.88867 219.70081 700.88867 221.05078 L 700.88867 221.99609 C 700.88867 223.34607 701.96839 224.4707 703.31836 224.4707 C 704.71333 224.4707 705.74805 223.34607 705.74805 221.99609 L 705.74805 221.05078 C 705.74805 219.70081 704.71333 218.62109 703.31836 218.62109 z M 736.2168 218.62109 C 734.86682 218.62109 733.78711 219.70081 733.78711 221.05078 L 733.78711 221.99609 C 733.78711 223.34607 734.86682 224.4707 736.2168 224.4707 C 737.61177 224.4707 738.64648 223.34607 738.64648 221.99609 L 738.64648 221.05078 C 738.64648 219.70081 737.61177 218.62109 736.2168 218.62109 z M 747.42969 218.62109 C 746.03472 218.62109 744.91016 219.70073 744.91016 221.0957 L 744.91016 227.62109 L 743.60352 227.62109 C 742.20854 227.62109 741.12891 228.70073 741.12891 230.0957 C 741.12891 231.44568 742.20854 232.57031 743.60352 232.57031 L 744.91016 232.57031 L 744.91016 245.125 C 744.91016 247.86994 747.15935 250.12109 749.9043 250.12109 C 751.29927 250.12109 752.37891 249.04146 752.37891 247.64648 C 752.37891 246.25151 751.29927 245.125 749.9043 245.125 L 749.9043 232.57031 L 751.0293 232.57031 C 752.37927 232.57031 753.54883 231.44568 753.54883 230.0957 C 753.54883 228.70073 752.37927 227.62109 751.0293 227.62109 L 749.9043 227.62109 L 749.9043 221.0957 C 749.9043 219.70073 748.82466 218.62109 747.42969 218.62109 z M 876.1582 218.62109 C 874.76323 218.62109 873.68359 219.74581 873.68359 221.05078 L 873.68359 229.51172 C 872.01863 228.34174 869.85925 227.62109 867.6543 227.62109 C 861.57942 227.62109 856.71875 232.75114 856.71875 238.91602 C 856.71875 244.99089 861.57942 250.12109 867.6543 250.12109 C 869.90425 250.12109 872.06347 249.35552 873.77344 248.18555 C 873.99843 249.26552 874.94323 250.12109 876.1582 250.12109 C 877.50818 250.12109 878.58789 248.99638 878.58789 247.69141 L 878.58789 238.91602 L 878.58789 238.87109 L 878.58789 221.05078 C 878.58789 219.74581 877.50818 218.62109 876.1582 218.62109 z M 887.41211 218.62109 C 886.06214 218.62109 884.98242 219.70081 884.98242 221.05078 L 884.98242 221.99609 C 884.98242 223.34607 886.06214 224.4707 887.41211 224.4707 C 888.80708 224.4707 889.8418 223.34607 889.8418 221.99609 L 889.8418 221.05078 C 889.8418 219.70081 888.80708 218.62109 887.41211 218.62109 z M 921.3125 218.62109 C 919.91753 218.62109 918.79297 219.70073 918.79297 221.0957 L 918.79297 227.62109 L 917.48828 227.62109 C 916.09331 227.62109 915.01367 228.70073 915.01367 230.0957 C 915.01367 231.44568 916.09331 232.57031 917.48828 232.57031 L 918.79297 232.57031 L 918.79297 245.125 C 918.79297 247.86994 921.04217 250.12109 923.78711 250.12109 C 925.18208 250.12109 926.26367 249.04146 926.26367 247.64648 C 926.26367 246.25151 925.18208 245.125 923.78711 245.125 L 923.78711 232.57031 L 924.91211 232.57031 C 926.26208 232.57031 927.43359 231.44568 927.43359 230.0957 C 927.43359 228.70073 926.26208 227.62109 924.91211 227.62109 L 923.78711 227.62109 L 923.78711 221.0957 C 923.78711 219.70073 922.70747 218.62109 921.3125 218.62109 z M 380.15625 218.66602 C 379.16627 218.62102 378.17648 219.25025 377.77148 220.24023 L 367.82617 246.74609 C 367.37618 248.05107 368.00557 249.49134 369.31055 249.98633 C 369.58054 250.07633 369.85102 250.12109 370.16602 250.12109 C 371.156 250.12109 372.10087 249.5349 372.50586 248.54492 L 374.71094 242.69531 L 385.64648 242.69531 L 387.85156 248.54492 C 388.21156 249.5349 389.1565 250.12109 390.14648 250.12109 C 390.46148 250.12109 390.775 250.07633 391 249.98633 C 392.30497 249.49134 392.93632 248.05107 392.48633 246.74609 L 382.54102 220.24023 C 382.13602 219.25025 381.19123 218.62102 380.15625 218.66602 z M 397.58789 227.62109 C 396.23792 227.62109 395.20313 228.70089 395.20312 230.00586 L 395.20312 236.98047 L 395.20312 247.73633 C 395.20312 249.0413 396.23792 250.12109 397.58789 250.12109 C 398.75787 250.12109 399.74766 249.26552 399.97266 248.18555 C 400.06265 248.00555 400.0625 247.87133 400.0625 247.73633 L 400.0625 236.98047 C 400.0625 234.46052 402.04255 232.43555 404.5625 232.43555 C 407.12745 232.43555 409.24219 234.46052 409.24219 236.98047 L 409.24219 247.73633 C 409.24219 249.0413 410.36698 250.12109 411.62695 250.12109 C 412.93193 250.12109 413.96875 249.0413 413.96875 247.73633 L 413.96875 236.98047 C 413.96875 231.89557 409.78239 227.62109 404.5625 227.62109 C 402.80754 227.62109 401.14294 228.16064 399.79297 229.01562 C 399.38798 228.16064 398.53287 227.62109 397.58789 227.62109 z M 446.93555 227.62109 C 445.63057 227.62109 444.55078 228.65581 444.55078 230.05078 L 444.55078 237.02539 L 444.55078 237.07031 L 444.55078 247.73633 C 444.55078 248.9063 445.40635 249.80618 446.48633 250.07617 C 446.62133 250.07617 446.75555 250.12109 446.93555 250.12109 C 447.88053 250.12109 448.78056 249.48967 449.18555 248.67969 L 449.18555 248.45508 C 449.27555 248.36508 449.27531 248.27555 449.32031 248.18555 L 449.32031 248.05078 C 449.32031 247.96078 449.36719 247.82633 449.36719 247.73633 L 449.36719 237.07031 C 449.36719 234.50537 451.43716 232.43555 453.91211 232.43555 C 456.43206 232.43555 458.50188 234.4606 458.54688 236.93555 L 458.54688 237.07031 L 458.54688 247.73633 C 458.54688 249.0413 459.71659 250.12109 460.97656 250.12109 C 462.28154 250.12109 463.36133 249.0413 463.36133 247.73633 L 463.36133 237.07031 L 463.36133 236.93555 C 463.45133 234.4606 465.47607 232.43555 468.04102 232.43555 C 470.51596 232.43555 472.58594 234.50537 472.58594 237.07031 L 472.58594 247.73633 C 472.58594 249.0413 473.71065 250.12109 475.01562 250.12109 C 476.3206 250.12109 477.40039 249.0413 477.40039 247.73633 L 477.40039 237.07031 C 477.40039 231.85042 473.21591 227.62109 468.04102 227.62109 C 465.20607 227.62109 462.64153 228.7916 460.97656 230.72656 C 459.2666 228.7916 456.74705 227.62109 453.91211 227.62109 C 452.20214 227.62109 450.53567 228.11572 449.0957 228.9707 C 448.73571 228.11572 447.88053 227.62109 446.93555 227.62109 z M 503.91602 227.62109 C 497.70614 227.66609 492.48633 232.66114 492.48633 238.91602 C 492.48633 245.08089 497.70614 250.12109 503.91602 250.12109 C 506.61596 250.12109 509.13535 249.1313 511.07031 247.73633 C 512.10529 246.83635 512.28639 245.39623 511.56641 244.40625 C 510.66642 243.32627 509.18139 243.14517 508.19141 243.91016 C 507.02143 244.76514 505.53598 245.35156 503.91602 245.35156 C 500.27109 245.35156 497.25586 242.38094 497.25586 238.91602 C 497.25586 235.45109 500.27109 232.43555 503.91602 232.43555 C 505.58098 232.43555 507.02143 233.02002 508.19141 233.875 C 509.22638 234.68498 510.66642 234.50576 511.56641 233.42578 C 512.28639 232.4358 512.10529 230.90569 511.07031 230.0957 C 509.13535 228.61073 506.61596 227.62109 503.91602 227.62109 z M 542.21875 227.62109 C 539.11381 227.62109 536.50347 228.92606 534.47852 231.04102 C 532.54356 233.20097 531.37305 235.85608 531.37305 238.91602 C 531.37305 242.06595 532.54356 244.85598 534.47852 246.83594 C 536.50347 248.95089 539.11381 250.25586 542.21875 250.25586 C 545.18869 250.25586 547.88941 248.95089 549.73438 246.83594 C 551.75933 244.85598 552.88281 242.06595 552.88281 238.91602 C 552.88281 235.85608 551.75933 233.20097 549.73438 231.04102 C 547.88941 228.92606 545.18869 227.62109 542.21875 227.62109 z M 602.29883 227.62109 C 599.23889 227.62109 596.5834 228.92614 594.64844 230.99609 C 592.71348 233.02105 591.58789 235.81108 591.58789 238.91602 C 591.58789 241.97595 592.71348 244.76598 594.64844 246.83594 C 596.5834 248.8609 599.23889 250.12109 602.29883 250.12109 C 604.54878 250.12109 606.57324 249.40052 608.2832 248.18555 C 608.5532 249.26552 609.45307 250.12109 610.62305 250.12109 C 611.92802 250.12109 613.00781 249.0413 613.00781 247.73633 L 613.00781 238.91602 L 613.00781 230.05078 C 613.00781 228.70081 611.92802 227.62109 610.62305 227.62109 C 609.45307 227.62109 608.5532 228.47659 608.2832 229.60156 C 606.57324 228.38659 604.54878 227.62109 602.29883 227.62109 z M 646.54883 227.62109 C 643.48889 227.62109 640.8334 228.92614 638.89844 230.99609 C 636.96348 233.02105 635.83984 235.81108 635.83984 238.91602 C 635.83984 241.97595 636.96348 244.76598 638.89844 246.83594 C 640.8334 248.8609 643.48889 250.12109 646.54883 250.12109 C 648.79878 250.12109 650.82324 249.40052 652.5332 248.18555 C 652.8032 249.26552 653.70307 250.12109 654.87305 250.12109 C 656.17802 250.12109 657.25977 249.0413 657.25977 247.73633 L 657.25977 238.91602 L 657.25977 230.05078 C 657.25977 228.70081 656.17802 227.62109 654.87305 227.62109 C 653.70307 227.62109 652.8032 228.47659 652.5332 229.60156 C 650.82324 228.38659 648.79878 227.62109 646.54883 227.62109 z M 672.96484 227.62109 C 666.75497 227.66609 661.53516 232.66114 661.53516 238.91602 C 661.53516 245.08089 666.75497 250.12109 672.96484 250.12109 C 675.66479 250.12109 678.18613 249.1313 680.12109 247.73633 C 681.15607 246.83635 681.33522 245.39623 680.61523 244.40625 C 679.71525 243.32627 678.23021 243.14517 677.24023 243.91016 C 676.07026 244.76514 674.58481 245.35156 672.96484 245.35156 C 669.31992 245.35156 666.30664 242.38094 666.30664 238.91602 C 666.30664 235.45109 669.31992 232.43555 672.96484 232.43555 C 674.62981 232.43555 676.07026 233.02002 677.24023 233.875 C 678.27521 234.68498 679.71525 234.50576 680.61523 233.42578 C 681.33522 232.4358 681.15607 230.90569 680.12109 230.0957 C 678.18613 228.61073 675.66479 227.62109 672.96484 227.62109 z M 758.96289 227.62109 C 757.74792 227.62109 756.62305 228.65589 756.62305 230.00586 L 756.62305 240.625 C 756.62305 245.79989 760.85245 250.07617 766.02734 250.07617 C 767.51231 250.07617 769.04276 249.71608 770.30273 248.99609 C 769.58275 251.33605 767.33268 253.04484 764.67773 253.08984 C 763.77775 253.08984 762.92139 252.86593 762.06641 252.46094 C 760.98643 251.87595 759.45803 252.37119 758.87305 253.45117 C 758.33306 254.71115 758.78299 256.10454 760.04297 256.64453 C 761.39294 257.31952 763.05777 257.76953 764.67773 257.76953 C 770.66261 257.76953 775.43164 253.0455 775.43164 247.01562 L 775.43164 240.625 L 775.43164 230.00586 C 775.43164 228.65589 774.30693 227.62109 773.00195 227.62109 C 771.65198 227.62109 770.66211 228.65589 770.66211 230.00586 L 770.66211 240.625 C 770.66211 243.23495 768.59229 245.21484 766.02734 245.21484 C 763.4624 245.21484 761.34766 243.23495 761.34766 240.625 L 761.34766 230.00586 C 761.34766 228.65589 760.35786 227.62109 758.96289 227.62109 z M 794.89453 227.62109 C 793.58956 227.62109 792.50781 228.70089 792.50781 230.00586 L 792.50781 238.91602 L 792.50781 238.96094 L 792.50781 256.15039 C 792.50781 257.41036 793.58956 258.58008 794.89453 258.58008 C 796.3345 258.58008 797.45898 257.41036 797.45898 256.15039 L 797.45898 248.23047 C 799.07895 249.40044 801.23833 250.07617 803.48828 250.07617 C 809.47316 250.07617 814.37891 245.08089 814.37891 238.91602 C 814.37891 232.75114 809.47316 227.62109 803.48828 227.62109 C 801.19333 227.62109 799.03411 228.38682 797.36914 229.4668 C 797.18914 228.47682 796.15451 227.62109 794.89453 227.62109 z M 843.16211 227.62109 C 836.99724 227.62109 832.22664 232.75122 832.18164 238.87109 C 832.22664 244.99097 836.99724 250.07609 843.16211 250.12109 C 846.35704 250.12109 849.01184 249.17535 851.2168 247.15039 C 852.25178 246.20541 851.80178 244.85655 851.2168 244.22656 C 850.63181 243.50658 848.78678 243.37135 847.8418 244.36133 C 846.71682 245.21631 844.78208 245.62133 843.16211 245.48633 C 841.58714 245.35133 839.78678 244.54092 838.8418 243.46094 C 838.03181 242.69595 837.5375 241.52521 837.3125 240.49023 L 851.62109 240.49023 C 852.88107 240.49023 853.82594 239.77138 853.96094 238.69141 C 854.00594 238.60141 854.00586 238.37515 854.00586 238.28516 L 854.00586 238.06055 C 853.64587 231.98567 849.01199 227.62109 843.16211 227.62109 z M 904.47266 227.62109 C 898.26278 227.66609 893.04297 232.66114 893.04297 238.91602 C 893.04297 245.08089 898.26278 250.12109 904.47266 250.12109 C 907.1726 250.12109 909.69395 249.1313 911.62891 247.73633 C 912.66388 246.83635 912.84303 245.39623 912.12305 244.40625 C 911.22307 243.32627 909.73803 243.14517 908.74805 243.91016 C 907.57807 244.76514 906.09262 245.35156 904.47266 245.35156 C 900.82773 245.35156 897.8125 242.38094 897.8125 238.91602 C 897.8125 235.45109 900.82773 232.43555 904.47266 232.43555 C 906.13762 232.43555 907.57807 233.02002 908.74805 233.875 C 909.78303 234.68498 911.22307 234.50576 912.12305 233.42578 C 912.84303 232.4358 912.66388 230.90569 911.62891 230.0957 C 909.69395 228.61073 907.1726 227.62109 904.47266 227.62109 z M 941.45703 227.62109 C 938.3521 227.62109 935.74371 228.92606 933.71875 231.04102 C 931.78379 233.20097 930.61328 235.85608 930.61328 238.91602 C 930.61328 242.06595 931.78379 244.85598 933.71875 246.83594 C 935.74371 248.95089 938.3521 250.25586 941.45703 250.25586 C 944.42697 250.25586 947.12769 248.95089 948.97266 246.83594 C 950.99761 244.85598 952.12305 242.06595 952.12305 238.91602 C 952.12305 235.85608 950.99761 233.20097 948.97266 231.04102 C 947.12769 228.92606 944.42697 227.62109 941.45703 227.62109 z M 437.34375 227.66602 C 435.99378 227.66602 434.91406 228.70065 434.91406 230.14062 L 434.91406 247.69141 C 434.91406 249.04138 435.99378 250.12109 437.34375 250.12109 C 438.73872 250.12109 439.77344 249.04138 439.77344 247.69141 L 439.77344 230.14062 C 439.77344 228.70065 438.73872 227.66602 437.34375 227.66602 z M 486.85352 227.66602 C 485.50354 227.66602 484.42383 228.70065 484.42383 230.14062 L 484.42383 247.69141 C 484.42383 249.04138 485.50354 250.12109 486.85352 250.12109 C 488.24849 250.12109 489.2832 249.04138 489.2832 247.69141 L 489.2832 230.14062 C 489.2832 228.70065 488.24849 227.66602 486.85352 227.66602 z M 519.13477 227.66602 C 517.82979 227.66602 516.75 228.70089 516.75 230.00586 L 516.75 247.73633 C 516.75 249.0413 517.82979 250.12109 519.13477 250.12109 C 520.48474 250.12109 521.61133 249.0413 521.61133 247.73633 L 521.61133 239.18555 C 521.83632 238.55556 522.3751 236.84622 523.45508 235.40625 C 523.99507 234.55127 524.67041 233.78608 525.52539 233.24609 C 526.29037 232.66111 527.18963 232.39062 528.22461 232.39062 C 529.57458 232.39062 530.60938 231.26583 530.60938 230.00586 C 530.60938 228.70089 529.57458 227.66602 528.22461 227.66602 C 525.97466 227.62102 524.03966 228.4319 522.55469 229.42188 C 522.23969 229.64687 521.88132 230.00532 521.61133 230.32031 L 521.61133 230.00586 C 521.61133 228.70089 520.48474 227.66602 519.13477 227.66602 z M 586.76758 227.66602 C 585.41761 227.66602 584.33594 228.70065 584.33594 230.14062 L 584.33594 247.69141 C 584.33594 249.04138 585.41761 250.12109 586.76758 250.12109 C 588.16255 250.12109 589.19727 249.04138 589.19727 247.69141 L 589.19727 230.14062 C 589.19727 228.70065 588.16255 227.66602 586.76758 227.66602 z M 703.31836 227.66602 C 701.96839 227.66602 700.88867 228.70065 700.88867 230.14062 L 700.88867 247.69141 C 700.88867 249.04138 701.96839 250.12109 703.31836 250.12109 C 704.71333 250.12109 705.74805 249.04138 705.74805 247.69141 L 705.74805 230.14062 C 705.74805 228.70065 704.71333 227.66602 703.31836 227.66602 z M 736.2168 227.66602 C 734.86682 227.66602 733.78711 228.70065 733.78711 230.14062 L 733.78711 247.69141 C 733.78711 249.04138 734.86682 250.12109 736.2168 250.12109 C 737.61177 250.12109 738.64648 249.04138 738.64648 247.69141 L 738.64648 230.14062 C 738.64648 228.70065 737.61177 227.66602 736.2168 227.66602 z M 821.62695 227.66602 C 820.32198 227.66602 819.24023 228.70089 819.24023 230.00586 L 819.24023 247.73633 C 819.24023 249.0413 820.32198 250.12109 821.62695 250.12109 C 822.97693 250.12109 824.10156 249.0413 824.10156 247.73633 L 824.10156 239.18555 C 824.32656 238.55556 824.86533 236.84622 825.94531 235.40625 C 826.4853 234.55127 827.16064 233.78608 828.01562 233.24609 C 828.78061 232.66111 829.68182 232.39062 830.7168 232.39062 C 832.06677 232.39062 833.10156 231.26583 833.10156 230.00586 C 833.10156 228.70089 832.06677 227.66602 830.7168 227.66602 C 828.46684 227.62102 826.53184 228.4319 825.04688 229.42188 C 824.73188 229.64687 824.37156 230.00532 824.10156 230.32031 L 824.10156 230.00586 C 824.10156 228.70089 822.97693 227.66602 821.62695 227.66602 z M 887.41211 227.66602 C 886.06214 227.66602 884.98242 228.70065 884.98242 230.14062 L 884.98242 247.69141 C 884.98242 249.04138 886.06214 250.12109 887.41211 250.12109 C 888.80708 250.12109 889.8418 249.04138 889.8418 247.69141 L 889.8418 230.14062 C 889.8418 228.70065 888.80708 227.66602 887.41211 227.66602 z M 958.30469 227.66602 C 956.99971 227.66602 955.91992 228.70089 955.91992 230.00586 L 955.91992 247.73633 C 955.91992 249.0413 956.99971 250.12109 958.30469 250.12109 C 959.65466 250.12109 960.7793 249.0413 960.7793 247.73633 L 960.7793 239.18555 C 961.00429 238.55556 961.54502 236.84622 962.625 235.40625 C 963.16499 234.55127 963.83838 233.78608 964.69336 233.24609 C 965.45834 232.66111 966.35955 232.39062 967.39453 232.39062 C 968.7445 232.39062 969.7793 231.26583 969.7793 230.00586 C 969.7793 228.70089 968.7445 227.66602 967.39453 227.66602 C 965.14458 227.62102 963.20958 228.4319 961.72461 229.42188 C 961.40962 229.64687 961.04929 230.00532 960.7793 230.32031 L 960.7793 230.00586 C 960.7793 228.70089 959.65466 227.66602 958.30469 227.66602 z M 711.42188 227.9668 C 711.13079 227.96469 710.84031 228.02516 710.57031 228.16016 C 709.31034 228.70015 708.72564 230.00573 709.26562 231.2207 L 716.55469 248.67969 C 716.59969 248.81468 716.64438 248.95109 716.73438 248.99609 C 716.73438 249.04109 716.73625 249.04102 716.78125 249.04102 C 716.87125 249.13101 716.96086 249.26547 717.00586 249.35547 C 717.05086 249.40047 717.0507 249.40039 717.0957 249.40039 C 717.1857 249.53539 717.27524 249.57992 717.36523 249.66992 C 717.36523 249.66992 717.41016 249.66984 717.41016 249.71484 C 717.59015 249.80484 717.67946 249.89641 717.81445 249.94141 L 717.90625 249.94141 L 717.90625 249.98633 C 718.04125 249.98633 718.13063 250.03117 718.26562 250.07617 L 718.35547 250.07617 C 718.53547 250.12117 718.66977 250.12109 718.75977 250.12109 C 718.89476 250.12109 719.03094 250.12117 719.21094 250.07617 L 719.30078 250.07617 C 719.39078 250.03117 719.52516 249.98633 719.66016 249.98633 L 719.66016 249.94141 L 719.75 249.94141 C 719.885 249.89641 719.97445 249.80484 720.06445 249.71484 C 720.06445 249.66984 720.10938 249.66992 720.10938 249.66992 C 720.19937 249.57992 720.29086 249.53539 720.38086 249.40039 C 720.38086 249.40039 720.42578 249.40047 720.42578 249.35547 C 720.51578 249.26547 720.60531 249.13101 720.69531 249.04102 C 720.69531 249.04102 720.74023 249.04109 720.74023 248.99609 C 720.78523 248.95109 720.87492 248.81468 720.91992 248.67969 L 728.30078 231.2207 C 728.84077 230.00573 728.25607 228.70015 726.99609 228.16016 C 725.82612 227.62017 724.47546 228.25182 723.98047 229.4668 L 718.75977 241.70508 L 713.58594 229.4668 C 713.18095 228.55557 712.29514 227.97312 711.42188 227.9668 z M 380.15625 228.07031 L 383.80078 237.74609 L 376.51172 237.74609 L 380.15625 228.07031 z M 843.16211 231.89648 C 847.07703 232.21148 849.37227 234.86605 849.82227 236.66602 L 837.08594 236.66602 C 837.44593 234.82105 839.33719 232.07648 843.16211 231.89648 z M 602.29883 232.43555 C 603.8738 232.43555 605.40244 233.06628 606.48242 234.28125 C 607.5624 235.40623 608.23828 237.02605 608.23828 238.91602 C 608.23828 240.76098 607.5624 242.38081 606.48242 243.55078 C 605.40244 244.67576 603.8738 245.30469 602.29883 245.30469 C 600.67886 245.30469 599.14826 244.67576 598.11328 243.55078 C 597.0333 242.38081 596.4043 240.76098 596.4043 238.91602 C 596.4043 237.02605 597.0333 235.40623 598.11328 234.28125 C 599.14826 233.06628 600.67886 232.43555 602.29883 232.43555 z M 646.54883 232.43555 C 648.1238 232.43555 649.6544 233.06628 650.73438 234.28125 C 651.81435 235.40623 652.48828 237.02605 652.48828 238.91602 C 652.48828 240.76098 651.81435 242.38081 650.73438 243.55078 C 649.6544 244.67576 648.1238 245.30469 646.54883 245.30469 C 644.92886 245.30469 643.39826 244.67576 642.36328 243.55078 C 641.2833 242.38081 640.6543 240.76098 640.6543 238.91602 C 640.6543 237.02605 641.2833 235.40623 642.36328 234.28125 C 643.39826 233.06628 644.92886 232.43555 646.54883 232.43555 z M 542.21875 232.52539 C 543.79372 232.52539 545.2344 233.24635 546.35938 234.23633 C 547.48435 235.4513 548.11328 237.07105 548.11328 238.91602 C 548.11328 240.85098 547.48435 242.42557 546.35938 243.68555 C 545.2344 244.76552 543.79372 245.35156 542.21875 245.35156 C 540.50879 245.35156 539.02341 244.76552 537.89844 243.68555 C 536.86346 242.42557 536.2793 240.85098 536.2793 238.91602 C 536.2793 237.07105 536.86346 235.4513 537.89844 234.23633 C 539.02341 233.24635 540.50879 232.52539 542.21875 232.52539 z M 568.49414 232.52539 C 570.11411 232.52539 571.59963 233.20112 572.72461 234.37109 C 573.84959 235.49607 574.52344 237.11605 574.52344 238.91602 C 574.52344 240.62598 573.84959 242.24612 572.72461 243.37109 C 571.59963 244.54107 570.11411 245.21484 568.49414 245.21484 C 566.82917 245.21484 565.38865 244.54107 564.26367 243.37109 C 563.1387 242.24612 562.46484 240.62598 562.46484 238.91602 C 562.46484 237.11605 563.1387 235.49607 564.26367 234.37109 C 565.38865 233.20112 566.82917 232.52539 568.49414 232.52539 z M 803.48828 232.52539 C 805.01825 232.52539 806.54877 233.15612 807.71875 234.37109 C 808.75373 235.54107 809.47266 237.16105 809.47266 238.91602 C 809.47266 240.67098 808.75373 242.38104 807.71875 243.41602 C 806.54877 244.67599 805.01825 245.30469 803.48828 245.30469 C 801.82332 245.30469 800.33787 244.67599 799.21289 243.41602 C 798.04291 242.38104 797.45898 240.67098 797.45898 238.91602 C 797.45898 237.16105 798.04291 235.54107 799.21289 234.37109 C 800.33787 233.15612 801.82332 232.52539 803.48828 232.52539 z M 867.6543 232.52539 C 869.31926 232.52539 870.75979 233.20112 871.88477 234.37109 C 873.00974 235.49607 873.68359 237.11605 873.68359 238.91602 C 873.68359 240.62598 873.00974 242.24612 871.88477 243.37109 C 870.75979 244.54107 869.31926 245.21484 867.6543 245.21484 C 866.03433 245.21484 864.5488 244.54107 863.42383 243.37109 C 862.29885 242.24612 861.625 240.62598 861.625 238.91602 C 861.625 237.11605 862.29885 235.49607 863.42383 234.37109 C 864.5488 233.20112 866.03433 232.52539 867.6543 232.52539 z M 941.45703 232.52539 C 943.032 232.52539 944.47268 233.24635 945.59766 234.23633 C 946.72263 235.4513 947.35352 237.07105 947.35352 238.91602 C 947.35352 240.85098 946.72263 242.42557 945.59766 243.68555 C 944.47268 244.76552 943.032 245.35156 941.45703 245.35156 C 939.74707 245.35156 938.26365 244.76552 937.13867 243.68555 C 936.10369 242.42557 935.51758 240.85098 935.51758 238.91602 C 935.51758 237.07105 936.10369 235.4513 937.13867 234.23633 C 938.26365 233.24635 939.74707 232.52539 941.45703 232.52539 z M 378.31055 262.58008 C 377.36557 262.58008 376.51131 262.66946 375.61133 262.93945 C 374.26136 263.34444 373.00108 264.3805 372.37109 265.73047 C 371.69611 267.03544 371.51563 268.47566 371.51562 270.14062 L 371.51562 270.76953 L 370.3457 270.76953 C 368.95073 270.76953 367.82617 271.84917 367.82617 273.24414 C 367.82617 274.59411 368.95073 275.7207 370.3457 275.7207 L 371.51562 275.7207 L 371.51562 291.60547 C 371.51562 292.95544 372.59526 294.08008 373.99023 294.08008 C 375.38521 294.08008 376.4668 292.95544 376.4668 291.60547 L 376.4668 275.7207 L 377.81641 275.7207 C 379.16638 275.7207 380.29102 274.59411 380.29102 273.24414 C 380.29102 271.84917 379.16638 270.76953 377.81641 270.76953 L 376.4668 270.76953 L 376.4668 270.14062 C 376.4668 268.47566 376.82609 267.8457 376.87109 267.8457 C 376.91609 267.8007 376.96063 267.75594 377.14062 267.71094 C 377.32062 267.62094 377.72556 267.57422 378.31055 267.57422 C 379.66052 267.57422 380.78516 266.44966 380.78516 265.05469 C 380.78516 263.70472 379.66052 262.58008 378.31055 262.58008 z M 442.70312 262.58008 C 441.75814 262.58008 440.90193 262.66946 440.00195 262.93945 C 438.65198 263.34444 437.39171 264.3805 436.76172 265.73047 C 436.08673 267.03544 435.9082 268.47566 435.9082 270.14062 L 435.9082 270.76953 L 434.73828 270.76953 C 433.34331 270.76953 432.2168 271.84917 432.2168 273.24414 C 432.2168 274.59411 433.34331 275.7207 434.73828 275.7207 L 435.9082 275.7207 L 435.9082 291.60547 C 435.9082 292.95544 436.98784 294.08008 438.38281 294.08008 C 439.77778 294.08008 440.85742 292.95544 440.85742 291.60547 L 440.85742 275.7207 L 442.20703 275.7207 C 443.557 275.7207 444.68164 274.59411 444.68164 273.24414 C 444.68164 271.84917 443.557 270.76953 442.20703 270.76953 L 440.85742 270.76953 L 440.85742 270.14062 C 440.85742 268.47566 441.21672 267.8457 441.26172 267.8457 C 441.30672 267.8007 441.35125 267.75594 441.53125 267.71094 C 441.71125 267.62094 442.11814 267.57422 442.70312 267.57422 C 444.0531 267.57422 445.17773 266.44966 445.17773 265.05469 C 445.17773 263.70472 444.0531 262.58008 442.70312 262.58008 z M 599.60938 262.58008 C 598.66439 262.58008 597.81014 262.66946 596.91016 262.93945 C 595.56018 263.34444 594.29991 264.3805 593.66992 265.73047 C 592.99494 267.03544 592.81445 268.47566 592.81445 270.14062 L 592.81445 270.76953 L 591.64453 270.76953 C 590.24956 270.76953 589.125 271.84917 589.125 273.24414 C 589.125 274.59411 590.24956 275.7207 591.64453 275.7207 L 592.81445 275.7207 L 592.81445 291.60547 C 592.81445 292.95544 593.89409 294.08008 595.28906 294.08008 C 596.68403 294.08008 597.76367 292.95544 597.76367 291.60547 L 597.76367 275.7207 L 599.11328 275.7207 C 600.46325 275.7207 601.58984 274.59411 601.58984 273.24414 C 601.58984 271.84917 600.46325 270.76953 599.11328 270.76953 L 597.76367 270.76953 L 597.76367 270.14062 C 597.76367 268.47566 598.12492 267.8457 598.16992 267.8457 C 598.21492 267.8007 598.25946 267.75594 598.43945 267.71094 C 598.61945 267.62094 599.02439 267.57422 599.60938 267.57422 C 600.95935 267.57422 602.08398 266.44966 602.08398 265.05469 C 602.08398 263.70472 600.95935 262.58008 599.60938 262.58008 z M 612.89453 262.58008 C 611.94955 262.58008 611.09529 262.66946 610.19531 262.93945 C 608.84534 263.34444 607.58507 264.3805 606.95508 265.73047 C 606.28009 267.03544 606.09961 268.47566 606.09961 270.14062 L 606.09961 270.76953 L 604.92969 270.76953 C 603.53472 270.76953 602.41016 271.84917 602.41016 273.24414 C 602.41016 274.59411 603.53472 275.7207 604.92969 275.7207 L 606.09961 275.7207 L 606.09961 291.60547 C 606.09961 292.95544 607.17925 294.08008 608.57422 294.08008 C 609.96919 294.08008 611.04883 292.95544 611.04883 291.60547 L 611.04883 275.7207 L 612.40039 275.7207 C 613.75036 275.7207 614.875 274.59411 614.875 273.24414 C 614.875 271.84917 613.75036 270.76953 612.40039 270.76953 L 611.04883 270.76953 L 611.04883 270.14062 C 611.04883 268.47566 611.41008 267.8457 611.45508 267.8457 C 611.50008 267.8007 611.54461 267.75594 611.72461 267.71094 C 611.90461 267.62094 612.30954 267.57422 612.89453 267.57422 C 614.2445 267.57422 615.36914 266.44966 615.36914 265.05469 C 615.36914 263.70472 614.2445 262.58008 612.89453 262.58008 z M 549.97852 262.625 C 548.62854 262.625 547.50391 263.74964 547.50391 265.09961 L 547.50391 291.65039 C 547.50391 293.00036 548.62854 294.125 549.97852 294.125 C 551.37349 294.125 552.49805 293.00036 552.49805 291.65039 L 552.49805 265.09961 C 552.49805 263.74964 551.37349 262.625 549.97852 262.625 z M 667.6582 262.625 C 666.26323 262.625 665.13672 263.70464 665.13672 265.09961 L 665.13672 271.625 L 663.83203 271.625 C 662.43706 271.625 661.35742 272.70464 661.35742 274.09961 C 661.35742 275.44958 662.43706 276.57422 663.83203 276.57422 L 665.13672 276.57422 L 665.13672 289.12891 C 665.13672 291.87385 667.38787 294.125 670.13281 294.125 C 671.52778 294.125 672.60742 293.04536 672.60742 291.65039 C 672.60742 290.25542 671.52778 289.12891 670.13281 289.12891 L 670.13281 276.57422 L 671.25781 276.57422 C 672.60778 276.57422 673.77734 275.44958 673.77734 274.09961 C 673.77734 272.70464 672.60778 271.625 671.25781 271.625 L 670.13281 271.625 L 670.13281 265.09961 C 670.13281 263.70464 669.05317 262.625 667.6582 262.625 z M 818.46094 262.625 C 817.06597 262.625 815.98633 263.74971 815.98633 265.05469 L 815.98633 273.51562 C 814.32136 272.34565 812.16199 271.625 809.95703 271.625 C 803.88216 271.625 799.02148 276.75505 799.02148 282.91992 C 799.02148 288.9948 803.88216 294.125 809.95703 294.125 C 812.20698 294.125 814.36621 293.35943 816.07617 292.18945 C 816.30117 293.26943 817.24596 294.125 818.46094 294.125 C 819.81091 294.125 820.89062 293.00029 820.89062 291.69531 L 820.89062 282.91992 L 820.89062 282.875 L 820.89062 265.05469 C 820.89062 263.74971 819.81091 262.625 818.46094 262.625 z M 829.71484 262.625 C 828.36487 262.625 827.2832 263.70472 827.2832 265.05469 L 827.2832 266 C 827.2832 267.34997 828.36487 268.47461 829.71484 268.47461 C 831.10981 268.47461 832.14453 267.34997 832.14453 266 L 832.14453 265.05469 C 832.14453 263.70472 831.10981 262.625 829.71484 262.625 z M 854.875 262.625 C 853.48003 262.625 852.40039 263.74971 852.40039 265.05469 L 852.40039 273.51562 C 850.73542 272.34565 848.57605 271.625 846.37109 271.625 C 840.29622 271.625 835.43555 276.75505 835.43555 282.91992 C 835.43555 288.9948 840.29622 294.125 846.37109 294.125 C 848.62105 294.125 850.78027 293.35943 852.49023 292.18945 C 852.71523 293.26943 853.66003 294.125 854.875 294.125 C 856.22497 294.125 857.30469 293.00029 857.30469 291.69531 L 857.30469 282.91992 L 857.30469 282.875 L 857.30469 265.05469 C 857.30469 263.74971 856.22497 262.625 854.875 262.625 z M 892.54492 262.625 C 891.14995 262.625 890.02539 263.70464 890.02539 265.09961 L 890.02539 271.625 L 888.7207 271.625 C 887.32573 271.625 886.24414 272.70464 886.24414 274.09961 C 886.24414 275.44958 887.32573 276.57422 888.7207 276.57422 L 890.02539 276.57422 L 890.02539 289.12891 C 890.02539 291.87385 892.27459 294.125 895.01953 294.125 C 896.4145 294.125 897.49414 293.04536 897.49414 291.65039 C 897.49414 290.25542 896.4145 289.12891 895.01953 289.12891 L 895.01953 276.57422 L 896.14453 276.57422 C 897.4945 276.57422 898.66406 275.44958 898.66406 274.09961 C 898.66406 272.70464 897.4945 271.625 896.14453 271.625 L 895.01953 271.625 L 895.01953 265.09961 C 895.01953 263.70464 893.93989 262.625 892.54492 262.625 z M 391.6543 271.625 C 388.54936 271.625 385.93902 272.92997 383.91406 275.04492 C 381.9791 277.20488 380.80859 279.85998 380.80859 282.91992 C 380.80859 286.06986 381.9791 288.85988 383.91406 290.83984 C 385.93902 292.9548 388.54936 294.25977 391.6543 294.25977 C 394.62424 294.25977 397.32301 292.9548 399.16797 290.83984 C 401.19293 288.85988 402.31836 286.06986 402.31836 282.91992 C 402.31836 279.85998 401.19293 277.20488 399.16797 275.04492 C 397.32301 272.92997 394.62424 271.625 391.6543 271.625 z M 448.69727 271.625 C 447.39229 271.625 446.3125 272.74979 446.3125 274.00977 L 446.3125 284.76562 C 446.3125 289.89552 450.54198 294.125 455.67188 294.125 C 460.84677 294.125 465.16797 289.89552 465.16797 284.76562 L 465.16797 274.00977 C 465.16797 272.74979 463.99826 271.625 462.73828 271.625 C 461.38831 271.625 460.39648 272.74979 460.39648 274.00977 L 460.39648 284.76562 C 460.35149 287.33057 458.28182 289.35547 455.67188 289.35547 C 453.10693 289.35547 451.08203 287.33057 451.08203 284.76562 L 451.08203 274.00977 C 451.08203 272.74979 450.04724 271.625 448.69727 271.625 z M 472.7168 271.625 C 471.36682 271.625 470.33203 272.70479 470.33203 274.00977 L 470.33203 280.98438 L 470.33203 291.74023 C 470.33203 293.04521 471.36682 294.125 472.7168 294.125 C 473.88677 294.125 474.87657 293.26943 475.10156 292.18945 C 475.19156 292.00946 475.19141 291.87523 475.19141 291.74023 L 475.19141 280.98438 C 475.19141 278.46443 477.17146 276.43945 479.69141 276.43945 C 482.25635 276.43945 484.37109 278.46443 484.37109 280.98438 L 484.37109 291.74023 C 484.37109 293.04521 485.49589 294.125 486.75586 294.125 C 488.06083 294.125 489.0957 293.04521 489.0957 291.74023 L 489.0957 280.98438 C 489.0957 275.89948 484.9113 271.625 479.69141 271.625 C 477.93644 271.625 476.27185 272.16455 474.92188 273.01953 C 474.51688 272.16455 473.66178 271.625 472.7168 271.625 z M 504.26953 271.625 C 501.29959 271.625 498.5541 272.93012 496.61914 274.95508 C 494.68418 277.07003 493.46875 279.85991 493.46875 282.96484 C 493.46875 286.11478 494.68418 288.90481 496.61914 290.88477 C 498.5541 292.99972 501.29959 294.30469 504.26953 294.30469 C 506.47449 294.30469 508.5441 293.62888 510.16406 292.50391 C 509.57907 295.24885 507.19447 297.32031 504.26953 297.32031 C 503.32455 297.32031 502.46811 297.09444 501.70312 296.68945 C 500.44315 296.14946 499.04983 296.59948 498.46484 297.81445 C 497.83486 299.02943 498.37495 300.5147 499.54492 301.05469 C 500.93989 301.77467 502.60457 302.17969 504.26953 302.17969 C 510.25441 302.17969 515.06836 297.27378 515.06836 291.37891 L 515.06836 283.00977 L 515.06836 282.96484 L 515.06836 274.00977 C 515.06836 272.70479 514.03357 271.625 512.68359 271.625 C 511.51362 271.625 510.52382 272.43565 510.29883 273.51562 C 508.67886 272.34565 506.60948 271.625 504.26953 271.625 z M 530.01172 271.625 C 526.95178 271.625 524.29629 272.93004 522.36133 275 C 520.42637 277.02496 519.30078 279.81499 519.30078 282.91992 C 519.30078 285.97986 520.42637 288.76989 522.36133 290.83984 C 524.29629 292.8648 526.95178 294.125 530.01172 294.125 C 532.26167 294.125 534.28613 293.40443 535.99609 292.18945 C 536.26609 293.26943 537.16596 294.125 538.33594 294.125 C 539.64091 294.125 540.7207 293.04521 540.7207 291.74023 L 540.7207 282.91992 L 540.7207 274.05469 C 540.7207 272.70472 539.64091 271.625 538.33594 271.625 C 537.16596 271.625 536.26609 272.48049 535.99609 273.60547 C 534.28613 272.39049 532.26167 271.625 530.01172 271.625 z M 575.3418 271.625 C 569.17692 271.625 564.40633 276.75513 564.36133 282.875 C 564.40633 288.99487 569.17692 294.08 575.3418 294.125 C 578.53673 294.125 581.19153 293.17926 583.39648 291.1543 C 584.43146 290.20932 583.98147 288.86046 583.39648 288.23047 C 582.8115 287.51048 580.96646 287.37525 580.02148 288.36523 C 578.89651 289.22022 576.96176 289.62523 575.3418 289.49023 C 573.76683 289.35524 571.96646 288.54482 571.02148 287.46484 C 570.2115 286.69986 569.71718 285.52912 569.49219 284.49414 L 583.80078 284.49414 C 585.06076 284.49414 586.00758 283.77529 586.14258 282.69531 C 586.18758 282.60531 586.1875 282.37906 586.1875 282.28906 L 586.1875 282.06445 C 585.82751 275.98958 581.19168 271.625 575.3418 271.625 z M 625.91992 271.625 C 619.75505 271.625 614.98641 276.75513 614.94141 282.875 C 614.98641 288.99487 619.75505 294.08 625.91992 294.125 C 629.11486 294.125 631.76965 293.17926 633.97461 291.1543 C 635.00959 290.20932 634.5596 288.86046 633.97461 288.23047 C 633.38962 287.51048 631.54459 287.37525 630.59961 288.36523 C 629.47463 289.22022 627.53989 289.62523 625.91992 289.49023 C 624.34495 289.35524 622.54459 288.54482 621.59961 287.46484 C 620.78963 286.69986 620.29531 285.52912 620.07031 284.49414 L 634.38086 284.49414 C 635.64083 284.49414 636.58571 283.77529 636.7207 282.69531 C 636.7657 282.60531 636.76563 282.37906 636.76562 282.28906 L 636.76562 282.06445 C 636.40563 275.98958 631.7698 271.625 625.91992 271.625 z M 650.81836 271.625 C 644.60849 271.67 639.38867 276.66505 639.38867 282.91992 C 639.38867 289.08479 644.60849 294.125 650.81836 294.125 C 653.5183 294.125 656.0377 293.13521 657.97266 291.74023 C 659.00763 290.84025 659.18678 289.40014 658.4668 288.41016 C 657.56682 287.33018 656.08178 287.14908 655.0918 287.91406 C 653.92182 288.76904 652.43833 289.35547 650.81836 289.35547 C 647.17343 289.35547 644.1582 286.38485 644.1582 282.91992 C 644.1582 279.45499 647.17343 276.43945 650.81836 276.43945 C 652.48333 276.43945 653.92182 277.02392 655.0918 277.87891 C 656.12678 278.68889 657.56682 278.50967 658.4668 277.42969 C 659.18678 276.43971 659.00763 274.90959 657.97266 274.09961 C 656.0377 272.61464 653.5183 271.625 650.81836 271.625 z M 687.80273 271.625 C 684.6978 271.625 682.08746 272.92997 680.0625 275.04492 C 678.12754 277.20488 676.95703 279.85998 676.95703 282.91992 C 676.95703 286.06986 678.12754 288.85988 680.0625 290.83984 C 682.08746 292.9548 684.6978 294.25977 687.80273 294.25977 C 690.77267 294.25977 693.47144 292.9548 695.31641 290.83984 C 697.34136 288.85988 698.4668 286.06986 698.4668 282.91992 C 698.4668 279.85998 697.34136 277.20488 695.31641 275.04492 C 693.47144 272.92997 690.77267 271.625 687.80273 271.625 z M 739.48047 271.625 C 733.2706 271.67 728.05078 276.66505 728.05078 282.91992 C 728.05078 289.08479 733.2706 294.125 739.48047 294.125 C 742.18041 294.125 744.69981 293.13521 746.63477 291.74023 C 747.66974 290.84025 747.85084 289.40014 747.13086 288.41016 C 746.23088 287.33018 744.74584 287.14908 743.75586 287.91406 C 742.58588 288.76904 741.10044 289.35547 739.48047 289.35547 C 735.83554 289.35547 732.82031 286.38485 732.82031 282.91992 C 732.82031 279.45499 735.83554 276.43945 739.48047 276.43945 C 741.14543 276.43945 742.58588 277.02392 743.75586 277.87891 C 744.79084 278.68889 746.23088 278.50967 747.13086 277.42969 C 747.85084 276.43971 747.66974 274.90959 746.63477 274.09961 C 744.69981 272.61464 742.18041 271.625 739.48047 271.625 z M 760.64062 271.625 C 757.58069 271.625 754.92519 272.93004 752.99023 275 C 751.05527 277.02496 749.92969 279.81499 749.92969 282.91992 C 749.92969 285.97986 751.05527 288.76989 752.99023 290.83984 C 754.92519 292.8648 757.58069 294.125 760.64062 294.125 C 762.89058 294.125 764.91504 293.40443 766.625 292.18945 C 766.89499 293.26943 767.79487 294.125 768.96484 294.125 C 770.26982 294.125 771.34961 293.04521 771.34961 291.74023 L 771.34961 282.91992 L 771.34961 274.05469 C 771.34961 272.70472 770.26982 271.625 768.96484 271.625 C 767.79487 271.625 766.89499 272.48049 766.625 273.60547 C 764.91504 272.39049 762.89058 271.625 760.64062 271.625 z M 779.14648 271.625 C 777.79651 271.625 776.76172 272.70479 776.76172 274.00977 L 776.76172 280.98438 L 776.76172 291.74023 C 776.76172 293.04521 777.79651 294.125 779.14648 294.125 C 780.31646 294.125 781.30821 293.26943 781.5332 292.18945 C 781.6232 292.00946 781.62305 291.87523 781.62305 291.74023 L 781.62305 280.98438 C 781.62305 278.46443 783.6031 276.43945 786.12305 276.43945 C 788.68799 276.43945 790.80273 278.46443 790.80273 280.98438 L 790.80273 291.74023 C 790.80273 293.04521 791.92753 294.125 793.1875 294.125 C 794.49247 294.125 795.52734 293.04521 795.52734 291.74023 L 795.52734 280.98438 C 795.52734 275.89948 791.34294 271.625 786.12305 271.625 C 784.36808 271.625 782.70153 272.16455 781.35156 273.01953 C 780.94657 272.16455 780.09146 271.625 779.14648 271.625 z M 871.97852 271.625 C 868.91858 271.625 866.26309 272.93004 864.32812 275 C 862.39316 277.02496 861.26758 279.81499 861.26758 282.91992 C 861.26758 285.97986 862.39316 288.76989 864.32812 290.83984 C 866.26309 292.8648 868.91858 294.125 871.97852 294.125 C 874.22847 294.125 876.25293 293.40443 877.96289 292.18945 C 878.23289 293.26943 879.13276 294.125 880.30273 294.125 C 881.60771 294.125 882.6875 293.04521 882.6875 291.74023 L 882.6875 282.91992 L 882.6875 274.05469 C 882.6875 272.70472 881.60771 271.625 880.30273 271.625 C 879.13276 271.625 878.23289 272.48049 877.96289 273.60547 C 876.25293 272.39049 874.22847 271.625 871.97852 271.625 z M 911.23047 271.625 C 905.0656 271.625 900.295 276.75513 900.25 282.875 C 900.295 288.99487 905.0656 294.08 911.23047 294.125 C 914.4254 294.125 917.0802 293.17926 919.28516 291.1543 C 920.32013 290.20932 919.87014 288.86046 919.28516 288.23047 C 918.70017 287.51048 916.85514 287.37525 915.91016 288.36523 C 914.78518 289.22022 912.85044 289.62523 911.23047 289.49023 C 909.6555 289.35524 907.85514 288.54482 906.91016 287.46484 C 906.10017 286.69986 905.60585 285.52912 905.38086 284.49414 L 919.68945 284.49414 C 920.94943 284.49414 921.8943 283.77529 922.0293 282.69531 C 922.0743 282.60531 922.07422 282.37906 922.07422 282.28906 L 922.07422 282.06445 C 921.71423 275.98958 917.08035 271.625 911.23047 271.625 z M 933.42773 271.625 C 931.35778 271.625 929.46755 272.20908 927.89258 273.28906 C 926.40761 274.41404 925.23828 276.17028 925.23828 278.24023 C 925.23828 279.27521 925.50696 280.26424 926.00195 281.07422 C 926.81194 282.28919 927.89245 283.10056 929.10742 283.68555 C 930.2774 284.22554 931.62847 284.58547 933.02344 284.85547 L 933.06836 284.85547 C 934.68833 285.17046 936.03798 285.66524 936.66797 286.11523 C 937.02796 286.34023 937.20695 286.5193 937.25195 286.6543 C 937.34195 286.78929 937.38672 286.88047 937.38672 287.10547 C 937.38672 287.46546 937.20811 287.91509 936.57812 288.45508 C 935.85814 288.90507 934.73255 289.31055 933.51758 289.31055 C 931.76261 289.35555 929.73834 288.32006 928.56836 287.33008 C 927.57838 286.4751 926.00334 286.60948 925.19336 287.68945 C 924.38338 288.67943 924.51783 290.20955 925.50781 291.01953 C 927.30778 292.4595 930.00765 294.08 933.51758 294.125 C 935.72253 294.125 937.74722 293.4492 939.36719 292.32422 C 940.98715 291.15424 942.20313 289.31042 942.20312 287.10547 C 942.20312 286.07049 941.88765 285.03475 941.34766 284.13477 C 940.58267 282.87479 939.36732 282.02046 938.15234 281.48047 C 936.84737 280.85048 935.45177 280.44578 933.9668 280.17578 L 933.92188 280.17578 L 933.87695 280.12891 C 932.34698 279.85891 931.17678 279.45577 930.5918 279.05078 C 930.2768 278.87078 930.14266 278.68961 930.09766 278.59961 C 930.00766 278.46461 930.00781 278.42023 930.00781 278.24023 C 930.00781 278.01524 930.14353 277.61007 930.72852 277.20508 C 931.3135 276.75509 932.30276 276.39453 933.42773 276.39453 C 934.8677 276.39453 936.12839 277.11557 937.56836 278.06055 C 938.69334 278.82553 940.1765 278.50967 940.89648 277.42969 C 941.57147 276.30471 941.25771 274.81959 940.17773 274.09961 C 938.73776 273.10963 936.53267 271.625 933.42773 271.625 z M 408.5 271.66992 C 407.19503 271.66992 406.11523 272.70479 406.11523 274.00977 L 406.11523 291.74023 C 406.11523 293.04521 407.19503 294.125 408.5 294.125 C 409.84997 294.125 410.97461 293.04521 410.97461 291.74023 L 410.97461 283.18945 C 411.1996 282.55947 411.74033 280.85013 412.82031 279.41016 C 413.3603 278.55517 414.03564 277.78999 414.89062 277.25 C 415.65561 276.66501 416.55487 276.39453 417.58984 276.39453 C 418.93982 276.39453 419.97461 275.26974 419.97461 274.00977 C 419.97461 272.70479 418.93982 271.66992 417.58984 271.66992 C 415.33989 271.62492 413.40489 272.4358 411.91992 273.42578 C 411.60493 273.65078 411.2446 274.00923 410.97461 274.32422 L 410.97461 274.00977 C 410.97461 272.70479 409.84997 271.66992 408.5 271.66992 z M 704.64844 271.66992 C 703.34346 271.66992 702.26367 272.70479 702.26367 274.00977 L 702.26367 291.74023 C 702.26367 293.04521 703.34346 294.125 704.64844 294.125 C 705.99841 294.125 707.12305 293.04521 707.12305 291.74023 L 707.12305 283.18945 C 707.34804 282.55947 707.88877 280.85013 708.96875 279.41016 C 709.50874 278.55517 710.18408 277.78999 711.03906 277.25 C 711.80405 276.66501 712.7033 276.39453 713.73828 276.39453 C 715.08825 276.39453 716.12305 275.26974 716.12305 274.00977 C 716.12305 272.70479 715.08825 271.66992 713.73828 271.66992 C 711.48833 271.62492 709.55333 272.4358 708.06836 273.42578 C 707.75337 273.65078 707.39304 274.00923 707.12305 274.32422 L 707.12305 274.00977 C 707.12305 272.70479 705.99841 271.66992 704.64844 271.66992 z M 829.71484 271.66992 C 828.36487 271.66992 827.2832 272.70456 827.2832 274.14453 L 827.2832 291.69531 C 827.2832 293.04528 828.36487 294.125 829.71484 294.125 C 831.10981 294.125 832.14453 293.04528 832.14453 291.69531 L 832.14453 274.14453 C 832.14453 272.70456 831.10981 271.66992 829.71484 271.66992 z M 575.3418 275.90039 C 579.25672 276.21538 581.55196 278.86996 582.00195 280.66992 L 569.26758 280.66992 C 569.62757 278.82496 571.51688 276.08039 575.3418 275.90039 z M 625.91992 275.90039 C 629.83484 276.21538 632.13009 278.86996 632.58008 280.66992 L 619.8457 280.66992 C 620.2057 278.82496 622.095 276.08039 625.91992 275.90039 z M 911.23047 275.90039 C 915.14539 276.21538 917.44063 278.86996 917.89062 280.66992 L 905.15625 280.66992 C 905.51624 278.82496 907.40555 276.08039 911.23047 275.90039 z M 504.26953 276.43945 C 505.9795 276.43945 507.37299 277.11503 508.54297 278.375 C 509.53295 279.45498 510.25391 281.16488 510.25391 282.96484 C 510.25391 284.8548 509.53295 286.56463 508.54297 287.59961 C 507.37299 288.81458 505.9795 289.44531 504.26953 289.44531 C 502.69456 289.44531 501.20888 288.81458 500.12891 287.59961 C 499.04893 286.56463 498.32812 284.8548 498.32812 282.96484 C 498.32812 281.16488 499.04893 279.45498 500.12891 278.375 C 501.20888 277.11503 502.69456 276.43945 504.26953 276.43945 z M 530.01172 276.43945 C 531.58669 276.43945 533.11533 277.07018 534.19531 278.28516 C 535.27529 279.41013 535.95117 281.02996 535.95117 282.91992 C 535.95117 284.76488 535.27529 286.38471 534.19531 287.55469 C 533.11533 288.67966 531.58669 289.31055 530.01172 289.31055 C 528.39175 289.31055 526.86115 288.67966 525.82617 287.55469 C 524.74619 286.38471 524.11719 284.76488 524.11719 282.91992 C 524.11719 281.02996 524.74619 279.41013 525.82617 278.28516 C 526.86115 277.07018 528.39175 276.43945 530.01172 276.43945 z M 760.64062 276.43945 C 762.21559 276.43945 763.74424 277.07018 764.82422 278.28516 C 765.9042 279.41013 766.58008 281.02996 766.58008 282.91992 C 766.58008 284.76488 765.9042 286.38471 764.82422 287.55469 C 763.74424 288.67966 762.21559 289.31055 760.64062 289.31055 C 759.02066 289.31055 757.49006 288.67966 756.45508 287.55469 C 755.3751 286.38471 754.74609 284.76488 754.74609 282.91992 C 754.74609 281.02996 755.3751 279.41013 756.45508 278.28516 C 757.49006 277.07018 759.02066 276.43945 760.64062 276.43945 z M 871.97852 276.43945 C 873.55348 276.43945 875.08213 277.07018 876.16211 278.28516 C 877.24209 279.41013 877.91797 281.02996 877.91797 282.91992 C 877.91797 284.76488 877.24209 286.38471 876.16211 287.55469 C 875.08213 288.67966 873.55348 289.31055 871.97852 289.31055 C 870.35855 289.31055 868.82795 288.67966 867.79297 287.55469 C 866.71299 286.38471 866.08398 284.76488 866.08398 282.91992 C 866.08398 281.02996 866.71299 279.41013 867.79297 278.28516 C 868.82795 277.07018 870.35855 276.43945 871.97852 276.43945 z M 391.6543 276.5293 C 393.22926 276.5293 394.66799 277.25025 395.79297 278.24023 C 396.91795 279.45521 397.54883 281.07496 397.54883 282.91992 C 397.54883 284.85488 396.91795 286.42948 395.79297 287.68945 C 394.66799 288.76943 393.22926 289.35547 391.6543 289.35547 C 389.94433 289.35547 388.45896 288.76943 387.33398 287.68945 C 386.29901 286.42948 385.71484 284.85488 385.71484 282.91992 C 385.71484 281.07496 386.29901 279.45521 387.33398 278.24023 C 388.45896 277.25025 389.94433 276.5293 391.6543 276.5293 z M 687.80273 276.5293 C 689.3777 276.5293 690.81643 277.25025 691.94141 278.24023 C 693.06638 279.45521 693.69727 281.07496 693.69727 282.91992 C 693.69727 284.85488 693.06638 286.42948 691.94141 287.68945 C 690.81643 288.76943 689.3777 289.35547 687.80273 289.35547 C 686.09277 289.35547 684.6074 288.76943 683.48242 287.68945 C 682.44744 286.42948 681.86328 284.85488 681.86328 282.91992 C 681.86328 281.07496 682.44744 279.45521 683.48242 278.24023 C 684.6074 277.25025 686.09277 276.5293 687.80273 276.5293 z M 809.95703 276.5293 C 811.622 276.5293 813.06057 277.20502 814.18555 278.375 C 815.31052 279.49998 815.98633 281.11996 815.98633 282.91992 C 815.98633 284.62989 815.31052 286.25002 814.18555 287.375 C 813.06057 288.54498 811.622 289.21875 809.95703 289.21875 C 808.33706 289.21875 806.85154 288.54498 805.72656 287.375 C 804.60159 286.25002 803.92578 284.62989 803.92578 282.91992 C 803.92578 281.11996 804.60159 279.49998 805.72656 278.375 C 806.85154 277.20502 808.33706 276.5293 809.95703 276.5293 z M 846.37109 276.5293 C 848.03606 276.5293 849.47659 277.20502 850.60156 278.375 C 851.72654 279.49998 852.40039 281.11996 852.40039 282.91992 C 852.40039 284.62989 851.72654 286.25002 850.60156 287.375 C 849.47659 288.54498 848.03606 289.21875 846.37109 289.21875 C 844.75113 289.21875 843.2656 288.54498 842.14062 287.375 C 841.01565 286.25002 840.3418 284.62989 840.3418 282.91992 C 840.3418 281.11996 841.01565 279.49998 842.14062 278.375 C 843.2656 277.20502 844.75113 276.5293 846.37109 276.5293 z "
         transform="matrix(0.26458333,0,0,0.26458333,23.985071,175.07194)" />
    </g>
  </g>
</svg>
